<svg xmlns="http://www.w3.org/2000/svg" xmlns:xlink="http://www.w3.org/1999/xlink" xmlns:svgjs="http://svgjs.com/svgjs" version="1.1" width="512" height="512" style="enable-background:new 0 0 512 512" xml:space="preserve"><rect id="backgroundrect" width="100%" height="100%" x="0" y="0" fill="none" stroke="none"/><g class="currentLayer" style=""><title>Layer 1</title><g id="svg_1" class="selected" fill="#ffffff" fill-opacity="1"><g xmlns="http://www.w3.org/2000/svg" id="svg_2" fill="#ffffff" fill-opacity="1"><path d="m256 0c-141.16 0-256 114.84-256 256s114.84 256 256 256 256-114.84 256-256-114.84-256-256-256zm90.71 402.27c-22.93 26.1-55.99 41.07-90.71 41.07-66.56 0-120.71-54.15-120.71-120.7 0-35.87 15.8-69.64 43.34-92.66 6.35-5.31 15.82-4.47 21.13 1.89 5.318 6.369 4.449 15.847-1.89 21.13-20.7 17.3-32.58 42.69-32.58 69.64 0 50.01 40.69 90.7 90.71 90.7 26.09 0 50.94-11.25 68.17-30.87 5.743-6.407 15.132-6.665 21.17-1.36 6.22 5.46 6.84 14.94 1.37 21.16zm77.46-10.11h-21.42c-5.36 0-10.31-2.85-12.99-7.49l-36.71-63.52c-10.357 0-86.58 0-97.05 0-8.28 0-15-6.72-15-15 0-4.903 0-134.129 0-139.03-27.87-6.76-48.62-31.92-48.62-61.83 0-35.08 28.54-63.62 63.62-63.62s63.62 28.54 63.62 63.62c0 29.774-20.597 54.994-48.62 61.812v34.828h76.23c8.28 0 15 6.71 15 15 0 8.28-6.72 15-15 15-14.169 0-62.019 0-76.23 0v59.22h90.71c5.35 0 10.3 2.86 12.98 7.5 8.52 14.74 28.978 50.134 36.71 63.51h12.77c8.28 0 15 6.72 15 15 0 8.29-6.72 15-15 15z" fill="#ffffff" data-original="#000000" style="" class="" id="svg_3" fill-opacity="1"/><ellipse cx="256" cy="105.29000091552734" rx="33.619998931884766" ry="33.619998931884766" transform="matrix(0.924,-0.383,0.383,0.924,-20.806,105.982) " fill="#ffffff" data-original="#000000" style="" class="" id="svg_4" fill-opacity="1"/></g></g></g></svg>